<svg width="124px" height="26px" viewBox="0 0 124 26" version="1.1" xmlns="http://www.w3.org/2000/svg"
  xmlns:xlink="http://www.w3.org/1999/xlink">
  <title>编组 95</title>
  <g id="页面-1" stroke="none" stroke-width="1" fill="none" fill-rule="evenodd">
    <g id="数据集展示备份-2" transform="translate(-28.000000, -17.000000)">
      <g id="编组-95" transform="translate(28.000000, 17.000000)">
        <g id="编组-94">
          <rect id="矩形备份-35" fill="#FFFFFF" opacity="0" x="0" y="0" width="46" height="26"></rect>
          <g id="编组-93" transform="translate(21.000000, 1.000000)" fill="#2185FD">
            <path
              d="M9.02081528,0.0208152802 L15.0208153,0.0208152802 C16.1253848,0.0208152802 17.0208153,0.916245781 17.0208153,2.02081528 L17.0208153,22.0208153 C17.0208153,23.1253848 16.1253848,24.0208153 15.0208153,24.0208153 L9.02081528,24.0208153 C7.91624578,24.0208153 7.02081528,23.1253848 7.02081528,22.0208153 L7.02081528,2.02081528 C7.02081528,0.916245781 7.91624578,0.0208152802 9.02081528,0.0208152802 Z"
              id="矩形"
              transform="translate(12.020815, 12.020815) scale(-1, 1) rotate(-45.000000) translate(-12.020815, -12.020815) ">
            </path>
            <path
              d="M14.7487373,14.7071068 L21.3345238,21.2928932 C21.7250481,21.6834175 21.7250481,22.3165825 21.3345238,22.7071068 C21.1469874,22.8946432 20.8926335,23 20.627417,23 L14.0416306,23 C13.4893458,23 13.0416306,22.5522847 13.0416306,22 L13.0416306,15.4142136 C13.0416306,14.8619288 13.4893458,14.4142136 14.0416306,14.4142136 C14.3068471,14.4142136 14.561201,14.5195704 14.7487373,14.7071068 Z"
              id="矩形备份-33" transform="translate(18.041631, 18.000000) scale(-1, 1) translate(-18.041631, -18.000000) ">
            </path>
          </g>
          <g id="编组-92" transform="translate(1.000000, 1.000000)" fill="#11CCFF">
            <path
              d="M9.02081528,0.0208152802 L15.0208153,0.0208152802 C16.1253848,0.0208152802 17.0208153,0.916245781 17.0208153,2.02081528 L17.0208153,22.0208153 C17.0208153,23.1253848 16.1253848,24.0208153 15.0208153,24.0208153 L9.02081528,24.0208153 C7.91624578,24.0208153 7.02081528,23.1253848 7.02081528,22.0208153 L7.02081528,2.02081528 C7.02081528,0.916245781 7.91624578,0.0208152802 9.02081528,0.0208152802 Z"
              id="矩形" transform="translate(12.020815, 12.020815) rotate(-45.000000) translate(-12.020815, -12.020815) ">
            </path>
            <path
              d="M2.70710678,14.7071068 L9.29289322,21.2928932 C9.68341751,21.6834175 9.68341751,22.3165825 9.29289322,22.7071068 C9.10535684,22.8946432 8.85100293,23 8.58578644,23 L2,23 C1.44771525,23 1,22.5522847 1,22 L1,15.4142136 C1,14.8619288 1.44771525,14.4142136 2,14.4142136 C2.26521649,14.4142136 2.5195704,14.5195704 2.70710678,14.7071068 Z"
              id="矩形备份-33"></path>
          </g>
        </g>
        <text id="魔狸科技备份" font-family="AlibabaPuHuiTiM, Alibaba PuHuiTi" font-size="18" font-weight="400"
          line-spacing="26" fill="#333333">
          <tspan x="52.576" y="19">魔狸科技</tspan>
        </text>
      </g>
    </g>
  </g>
</svg>